PathFileType	4	(X/Y/Z)	/Users/itak/Documents/Research/Walk-IL/dataset/trc/00126_00007.trc
DataRate	CameraRate	NumFrames	NumMarkers	Units	OrigDataRate	OrigDataStartFrame	OrigNumFrames
100.000000	100.000000	4	55	mm	100.000000	186	747
Frame#	Time	RPSI			LPSI			L3			STRN			T10			C7			CLAV			RBAK			LBAK			LSHO			LUPA			LAEL			LAOL			LWTS			LWPS			LFRA			LIFD			LHPS			LHTS			RSHO			RUPA			RAEL			RAOL			RWTS			RWPS			RFRA			RIFD			RHTS			RHPS			RBHD			LFHD			RFHD			LBHD			LHIP			RHIP			RASI			LASI			LKNE			LTHI			LANK			LTIP			LTOE			LMT1			LMT5			LHEE			RKNE			RTHI			RANK			RTIP			RTOE			RMT1			RMT5			RHEE			*53			*54			
		X1	Y1	Z1	X2	Y2	Z2	X3	Y3	Z3	X4	Y4	Z4	X5	Y5	Z5	X6	Y6	Z6	X7	Y7	Z7	X8	Y8	Z8	X9	Y9	Z9	X10	Y10	Z10	X11	Y11	Z11	X12	Y12	Z12	X13	Y13	Z13	X14	Y14	Z14	X15	Y15	Z15	X16	Y16	Z16	X17	Y17	Z17	X18	Y18	Z18	X19	Y19	Z19	X20	Y20	Z20	X21	Y21	Z21	X22	Y22	Z22	X23	Y23	Z23	X24	Y24	Z24	X25	Y25	Z25	X26	Y26	Z26	X27	Y27	Z27	X28	Y28	Z28	X29	Y29	Z29	X30	Y30	Z30	X31	Y31	Z31	X32	Y32	Z32	X33	Y33	Z33	X34	Y34	Z34	X35	Y35	Z35	X36	Y36	Z36	X37	Y37	Z37	X38	Y38	Z38	X39	Y39	Z39	X40	Y40	Z40	X41	Y41	Z41	X42	Y42	Z42	X43	Y43	Z43	X44	Y44	Z44	X45	Y45	Z45	X46	Y46	Z46	X47	Y47	Z47	X48	Y48	Z48	X49	Y49	Z49	X50	Y50	Z50	X51	Y51	Z51	X52	Y52	Z52	X53	Y53	Z53	X54	Y54	Z54	X55	Y55	Z55	

187	1.86	785.24755859375	1094.69091796875	724.557373046875	662.8377075195312	1089.159545898438	662.1058959960938	714.5623168945312	1125.895629882812	694.0728759765625	819.9199829101562	1325.107299804688	503.2528381347656	680.8905639648438	1276.763916015625	720.6998901367188	673.4606323242188	1566.51416015625	669.040771484375	793.4805908203125	1459.845092773438	529.5613403320312	722.8858642578125	1387.110473632812	769.0816650390625	586.9985961914062	1539.46240234375	613.9217529296875	585.630615234375	1520.279296875	505.7972106933594	529.071044921875	1384.267578125	476.93115234375	549.4353637695312	1167.080322265625	434.8938903808594	549.6785278320312	1146.39697265625	521.8252563476562	707.9827880859375	952.4117431640625	358.1165771484375	641.8441162109375	901.835205078125	391.1580810546875	582.8163452148438	1058.344970703125	406.0419921875	783.8069458007812	776.346435546875	336.1828308105469	680.8201293945312	839.1441040039062	358.7276000976562	733.8211059570312	871.5811767578125	324.7684020996094	853.9807739257812	1559.705322265625	730.811767578125	897.729736328125	1490.388061523438	786.3417358398438	926.0097045898438	1200.536254882812	825.619873046875	845.0498657226562	1189.488647460938	769.83837890625	1018.847106933594	953.005615234375	724.9413452148438	996.860595703125	942.17041015625	803.7814331054688	957.1717529296875	1128.6513671875	822.2492065429688	1026.779052734375	757.7902221679688	711.710693359375	1046.99951171875	844.5579223632812	714.9089965820312	1027.387817382812	841.9846801757812	786.3477783203125	776.27197265625	1759.53173828125	632.9867553710938	677.093017578125	1768.138305664062	435.5681762695312	801.57373046875	1798.41943359375	459.6599731445312	645.68212890625	1734.404174804688	613.0328369140625	611.1207275390625	993.0023803710938	532.2308959960938	953.9769897460938	1007.227783203125	660.4354248046875	937.6591186523438	1076.984252929688	566.4331665039062	697.4171142578125	1058.499633789062	451.6828918457031	680.0592651367188	491.2823791503906	607.1666259765625	638.1217651367188	639.2498168945312	582.5919799804688	553.7369384765625	74.08021545410156	901.7925415039062	568.78759765625	292.9284973144531	765.4427490234375	768.2920532226562	33.70979690551758	820.4345092773438	722.6488647460938	55.69644165039062	889.0864868164062	638.158447265625	42.15134811401367	815.5755615234375	539.0498657226562	114.355712890625	986.3533935546875	995.1251220703125	548.7606201171875	494.0054931640625	990.1912841796875	811.1483154296875	583.55908203125	1036.179809570312	25.05022048950195	454.7284545898438	1021.461547851562	415.1097412109375	483.0387268066406	1013.09716796875	87.41230010986328	231.8409729003906	964.2108154296875	63.7369499206543	277.5278015136719	1073.82373046875	46.68401718139648	328.4130859375	977.5444946289062	23.10562324523926	504.2762451171875	nan	nan	nan	nan	nan	nan	
188	1.87	792.7860717773438	1095.888305664062	714.858154296875	669.543701171875	1089.481567382812	654.302001953125	721.7529296875	1126.79931640625	685.5669555664062	824.265869140625	1326.449340820312	493.5592956542969	688.08154296875	1277.359375	712.6950073242188	679.7236938476562	1567.1455078125	662.0410766601562	798.21728515625	1461.099365234375	520.8604736328125	730.5678100585938	1387.493530273438	760.8565673828125	592.740234375	1540.085327148438	607.9569702148438	590.029052734375	1521.044921875	499.7767944335938	532.8754272460938	1385.131469726562	471.6364135742188	551.7286376953125	1167.677490234375	430.6574401855469	552.560302734375	1147.796142578125	517.6807250976562	706.3839721679688	949.6116333007812	354.8781127929688	639.7431640625	900.62353515625	389.1488647460938	583.3802490234375	1058.203979492188	402.6218872070312	778.9659423828125	771.8980712890625	334.7734680175781	677.3758544921875	836.8299560546875	357.3019714355469	730.4757080078125	867.8453369140625	322.4266967773438	860.9488525390625	1560.297729492188	721.6902465820312	905.2523803710938	1490.913208007812	776.6217041015625	933.56591796875	1201.030029296875	815.2410888671875	852.3611450195312	1190.07275390625	759.7905883789062	1025.932006835938	953.6163940429688	713.8447265625	1004.115112304688	942.633056640625	792.7362060546875	964.716796875	1129.143432617188	811.6321411132812	1034.04296875	758.448486328125	700.3233032226562	1054.164672851562	845.226806640625	703.6083984375	1034.723999023438	842.5325317382812	775.0960693359375	781.8933715820312	1760.502319335938	624.974365234375	679.8566284179688	1769.084106445312	429.00732421875	804.6250610351562	1799.654907226562	451.3765258789062	651.087158203125	1735.1259765625	606.8734130859375	616.5797729492188	992.7138061523438	525.5480346679688	960.9644165039062	1009.512329101562	648.1131591796875	942.9229125976562	1078.943481445312	554.22900390625	700.8382568359375	1059.0498046875	444.2486267089844	687.985595703125	489.7938537597656	593.6658325195312	645.7111206054688	638.3226318359375	571.867919921875	555.7716674804688	80.368896484375	899.7681884765625	574.9631958007812	296.919189453125	757.9548950195312	768.037841796875	33.51487731933594	819.8974609375	723.8331298828125	57.54727554321289	887.2488403320312	638.5188598632812	41.69885635375977	816.0313720703125	543.2052612304688	125.2241592407227	982.2611083984375	999.3605346679688	550.0919189453125	482.277587890625	995.4407958984375	813.1359252929688	570.4899291992188	1037.541748046875	24.21691513061523	453.6892395019531	1025.448852539062	415.7691650390625	472.955322265625	1011.315551757812	80.99757385253906	228.8475036621094	963.1557006835938	59.36096572875977	276.20068359375	1073.6435546875	42.86039352416992	325.9566040039062	979.5498657226562	24.21513175964355	504.0745544433594	2112.037353515625	1081.392456054688	649.0747680664062	nan	nan	nan	
189	1.88	800.111328125	1097.172241210938	705.0437622070312	676.1453247070312	1089.99755859375	646.428955078125	728.7442626953125	1127.870727539062	677.1053466796875	828.3577880859375	1327.942749023438	483.8064880371094	695.1755981445312	1278.156616210938	704.6782836914062	685.9839477539062	1567.9921875	655.0235595703125	802.7315063476562	1462.511474609375	512.0646362304688	738.3384399414062	1388.133544921875	752.5498046875	598.456787109375	1540.9599609375	602.1244506835938	594.25537109375	1522.095703125	493.8685302734375	536.4893188476562	1386.285034179688	466.5133972167969	553.8851928710938	1168.59716796875	426.6149597167969	555.447265625	1149.5029296875	513.7234497070312	704.4776000976562	947.0709228515625	351.8398742675781	637.3806762695312	899.7562866210938	387.4552001953125	583.7554321289062	1058.412109375	399.4079284667969	773.6134643554688	767.7029418945312	333.6544799804688	673.5328369140625	834.84619140625	356.2045288085938	726.7337036132812	864.374267578125	320.347412109375	867.9639892578125	1561.132568359375	712.2755126953125	912.8922119140625	1491.740844726562	766.5637817382812	941.1227416992188	1201.841186523438	804.7117919921875	859.6138916015625	1190.978759765625	749.7056884765625	1032.900634765625	954.4953002929688	702.5596313476562	1011.305480957031	943.3720092773438	781.5224609375	972.2673950195312	1129.94189453125	800.8557739257812	1041.056030273438	759.3590087890625	688.734619140625	1061.155029296875	846.142822265625	692.0923461914062	1041.927612304688	843.33544921875	763.6482543945312	787.4155883789062	1761.600341796875	616.9107055664062	682.510498046875	1770.24560546875	422.4759826660156	807.5460205078125	1801.07568359375	443.1037292480469	656.4371337890625	1735.995727539062	600.711669921875	621.8057861328125	992.6051025390625	518.855712890625	967.7891845703125	1011.998107910156	635.874267578125	947.988525390625	1081.077758789062	542.1136474609375	704.3003540039062	1059.790649414062	436.7161254882812	695.8139038085938	488.3387145996094	579.163818359375	653.2164916992188	637.4395751953125	560.5592651367188	558.2987060546875	87.36182403564453	897.2532348632812	581.489990234375	301.4620666503906	749.6306762695312	767.7741088867188	33.28923416137695	819.3286743164062	725.3383178710938	59.65903091430664	884.9932250976562	638.9405517578125	41.22825241088867	816.6611328125	548.2755126953125	137.0709838867188	977.1417846679688	1003.662536621094	551.3748168945312	471.2076416015625	1000.710144042969	815.24609375	557.8104858398438	1038.98291015625	23.4670524597168	452.9382934570312	1029.503662109375	416.4420776367188	463.6053161621094	1010.297668457031	75.58225250244141	226.5648040771484	962.7843017578125	55.99039077758789	275.3534851074219	1073.989501953125	39.79386901855469	324.1216430664062	981.62255859375	25.16406059265137	504.0132446289062	nan	nan	nan	nan	nan	nan	
190	1.89	807.2767333984375	1098.482666015625	695.1365356445312	682.661865234375	1090.645751953125	638.59912109375	735.61083984375	1129.044799804688	668.7333984375	832.1715087890625	1329.4990234375	474.0293579101562	702.206298828125	1279.104125976562	696.7023315429688	692.2332153320312	1569.012084960938	648.012451171875	806.9944458007812	1463.994262695312	503.1653747558594	746.1950073242188	1388.969970703125	744.1842651367188	604.1175537109375	1542.03466796875	596.4329833984375	598.28759765625	1523.36474609375	488.1001586914062	539.8819580078125	1387.656372070312	461.5879211425781	555.8640747070312	1169.758056640625	422.7809143066406	558.3085327148438	1151.427978515625	509.9619750976562	702.2926025390625	944.7789916992188	348.9857788085938	634.8135986328125	899.1962280273438	386.0640563964844	583.9368896484375	1058.8994140625	396.4022521972656	767.8428955078125	763.7822265625	332.787109375	669.366455078125	833.1793823242188	355.4080200195312	722.6625366210938	861.1757202148438	318.5038757324219	875.0155639648438	1562.148803710938	702.5563354492188	920.6494140625	1492.812377929688	756.15478515625	948.7169799804688	1202.906982421875	794.0420532226562	866.828125	1192.132446289062	739.6380615234375	1039.754272460938	955.583251953125	691.0633544921875	1018.479248046875	944.3318481445312	770.1275024414062	979.8582763671875	1130.985595703125	789.9230346679688	1047.799560546875	760.4616088867188	676.9215087890625	1067.9609375	847.2451782226562	680.3251953125	1049.025512695312	844.3323364257812	751.978515625	792.818115234375	1762.766357421875	608.8145751953125	685.0548706054688	1771.584838867188	415.9838562011719	810.3406982421875	1802.628051757812	434.8606567382812	661.708251953125	1736.967895507812	594.5472412109375	626.7937622070312	992.6427612304688	512.238037109375	974.4598388671875	1014.556579589844	623.7166748046875	952.8778686523438	1083.26806640625	530.1047973632812	707.7881469726562	1060.674682617188	429.0942077636719	703.4365844726562	486.9743041992188	563.7579345703125	660.5407104492188	636.6185913085938	548.7594604492188	561.45751953125	95.03974151611328	894.1426391601562	588.3311767578125	306.5055236816406	740.4340209960938	767.5999145507812	32.9675407409668	818.6629028320312	727.2348022460938	62.06268310546875	882.20751953125	639.5084838867188	40.90406036376953	817.3224487304688	554.3511962890625	149.7297668457031	970.8667602539062	1007.938598632812	552.4772338867188	460.9494018554688	1005.994384765625	817.3339233398438	545.5782470703125	1040.375244140625	22.82506370544434	452.3901977539062	1033.475341796875	417.0125427246094	455.0791320800781	1009.766906738281	71.04908752441406	224.8153228759766	962.847900390625	53.42734146118164	274.8442993164062	1074.627685546875	37.47414016723633	322.7704772949219	983.6375122070312	25.9281005859375	504.0491638183594	nan	nan	nan	nan	nan	nan	
